<?xml version="1.0" encoding="UTF-8" standalone="no"?>
<!-- Created with Inkscape (http://www.inkscape.org/) -->

<svg
   width="210mm"
   height="297mm"
   viewBox="0 0 210 297"
   version="1.1"
   id="svg5"
   inkscape:version="1.3.2 (091e20e, 2023-11-25, custom)"
   sodipodi:docname="logoPocketHeroDiana.svg"
   xmlns:inkscape="http://www.inkscape.org/namespaces/inkscape"
   xmlns:sodipodi="http://sodipodi.sourceforge.net/DTD/sodipodi-0.dtd"
   xmlns="http://www.w3.org/2000/svg"
   xmlns:svg="http://www.w3.org/2000/svg">
  <sodipodi:namedview
     id="namedview7"
     pagecolor="#ffffff"
     bordercolor="#000000"
     borderopacity="0.25"
     inkscape:showpageshadow="2"
     inkscape:pageopacity="0.0"
     inkscape:pagecheckerboard="0"
     inkscape:deskcolor="#d1d1d1"
     inkscape:document-units="mm"
     showgrid="false"
     showguides="true"
     inkscape:zoom="0.35355339"
     inkscape:cx="113.13708"
     inkscape:cy="380.42345"
     inkscape:window-width="1536"
     inkscape:window-height="793"
     inkscape:window-x="1912"
     inkscape:window-y="-8"
     inkscape:window-maximized="1"
     inkscape:current-layer="layer1"
     inkscape:lockguides="false" />
  <defs
     id="defs2">
    <inkscape:path-effect
       effect="powerstroke"
       id="path-effect2117"
       is_visible="true"
       lpeversion="1"
       offset_points="3,0.21564298"
       not_jump="false"
       sort_points="true"
       interpolator_type="CubicBezierJohan"
       interpolator_beta="0.2"
       start_linecap_type="zerowidth"
       linejoin_type="extrp_arc"
       miter_limit="4"
       scale_width="1"
       end_linecap_type="zerowidth" />
  </defs>
  <g
     inkscape:label="Capa 1"
     inkscape:groupmode="layer"
     id="layer1">
    <rect
       style="fill:#000000;stroke-width:0.467047"
       id="rect594"
       width="25.731674"
       height="104.50037"
       x="44.216072"
       y="45.317215"
       ry="0" />
    <rect
       style="fill:#000000;stroke-width:0.582967"
       id="rect594-1"
       width="32.679592"
       height="187.04988"
       x="118.73766"
       y="46.136818" />
    <path
       style="fill:#000000;stroke-width:0.191203"
       d="m 83.213357,142.62537 c 0,0 -12.20908,0.99017 -12.90894,7.67053 -0.69988,6.68034 -1.25601,-0.0682 -1.25601,-0.0682 l 0.0292,-7.90149 7.4084,-0.31908 6.70545,-0.0458 z"
       id="path741-9-0-38-4"
       sodipodi:nodetypes="csccccc" />
    <path
       style="fill:#000000;stroke-width:0.191203"
       d="m 105.23296,143.16276 c 0,0 12.20908,0.99017 12.90894,7.67053 0.69988,6.68034 1.25601,-0.0682 1.25601,-0.0682 l -0.0292,-7.90149 -7.4084,-0.31908 -6.70545,-0.0458 z"
       id="path741-9-0-38-4-0"
       sodipodi:nodetypes="csccccc" />
    <rect
       style="fill:#000000;stroke-width:0.264583"
       id="rect624"
       width="29.196302"
       height="1.3933159"
       x="141.34055"
       y="45.96088" />
    <rect
       style="fill:#000000;stroke-width:0.264583"
       id="rect624-6"
       width="29.196302"
       height="1.3933159"
       x="146.36873"
       y="231.6089" />
    <path
       style="fill:#000000;stroke-width:0.34308"
       d="m 170.57795,47.567318 c 0,0 -18.04431,2.251347 -19.1191,16.256626 -1.07479,14.005279 -4.84215,1.347774 -4.84215,1.347774 l 2.9581,-18.05619 11.59876,-0.451779 8.82223,0.301188 z"
       id="path741"
       sodipodi:nodetypes="csccccc" />
    <path
       style="fill:#000000;stroke-width:0.434602"
       d="m 165.21193,231.81729 c 0,0 -13.83699,-4.71123 -14.66118,-34.01895 -0.82419,-29.30774 -1.47911,0.29942 -1.47911,0.29942 l 0.0343,34.66507 8.89432,0.94538 6.76519,-0.63027 z"
       id="path741-9"
       sodipodi:nodetypes="csccccc" />
    <path
       style="fill:#000000;stroke-width:0.547256"
       d="m 105.44829,231.17952 c 0,0 22.52414,-4.58909 23.86577,-33.13701 1.34164,-28.54794 2.40773,0.29166 2.40773,0.29166 l -0.0559,33.76638 -14.47836,0.92087 -11.01251,-0.61393 z"
       id="path741-9-07"
       sodipodi:nodetypes="csccccc" />
    <path
       style="fill:#000000;stroke-width:0.160468"
       d="m 87.756615,155.11922 c 0,0 -7.577159,1.12375 -8.011504,8.70538 -0.434354,7.5816 -0.779499,-0.0774 -0.779499,-0.0774 l 0.01813,-8.9675 4.597777,-0.36212 4.161514,-0.0519 z"
       id="path741-9-0"
       sodipodi:nodetypes="csccccc" />
    <path
       style="fill:#000000;stroke-width:0.191203"
       d="m 79.382777,167.28682 c 0,0 -12.20908,0.99017 -12.90894,7.67053 -0.699876,6.68034 -1.256007,-0.0682 -1.256007,-0.0682 l 0.02921,-7.90149 7.4084,-0.31908 6.70545,-0.0458 z"
       id="path741-9-0-38"
       sodipodi:nodetypes="csccccc" />
    <path
       style="fill:#000000;stroke-width:0.207834"
       d="m 47.593794,180.12349 c 0,0 -1.150877,-12.17442 -9.368679,-12.84662 -8.217776,-0.67222 -0.386316,-1.02724 -0.386316,-1.02724 l 9.719968,0.028 0.392513,7.11563 0.05634,6.44046 z"
       id="path741-9-0-38-7"
       sodipodi:nodetypes="csccccc" />
    <path
       style="fill:#000000;stroke-width:0.400729"
       d="M 44.18913,45.407125 56.907462,15.307824 69.956071,45.407125"
       id="path792"
       sodipodi:nodetypes="ccc" />
    <rect
       style="fill:#ffffff;stroke-width:0.264583"
       id="rect794"
       width="11.330932"
       height="100.99754"
       x="56.99929"
       y="45.726097" />
    <path
       style="fill:#ffffff;stroke-width:0.357924"
       d="M 40.36165,153.76168 C 56.978001,134.8549 57.300259,134.68893 57.300259,134.68893 l 17.349993,19.04931"
       id="path906-9-9-2-9-4-1"
       sodipodi:nodetypes="ccc" />
    <path
       style="fill:#ffffff;stroke-width:0.374045"
       d="m 57.020547,45.998046 c 0.08847,-25.554349 0.08847,-25.64497 0.08847,-25.64497 l 11.576115,25.410162 z"
       id="path902"
       sodipodi:nodetypes="cccc" />
    <rect
       style="fill:#ffffff;stroke-width:0.40126"
       id="rect904"
       width="11.629574"
       height="1.7977399"
       x="56.988518"
       y="45.827034"
       transform="skewY(0.06326411)"
       ry="0.50847763" />
    <rect
       style="fill:#000000;stroke-width:0.328165"
       id="rect982"
       width="18.853996"
       height="66.316299"
       x="47.203197"
       y="156.08162"
       transform="skewX(0.07722916)" />
    <path
       style="fill:#000000;stroke-width:0.239221"
       id="path1088"
       sodipodi:type="arc"
       sodipodi:cx="56.594837"
       sodipodi:cy="221.07588"
       sodipodi:rx="11.92817"
       sodipodi:ry="12.021788"
       sodipodi:start="6.15872"
       sodipodi:end="3.249431"
       sodipodi:arc-type="slice"
       d="m 68.430733,219.58345 a 11.92817,12.021788 0 0 1 -5.392752,11.6095 11.92817,12.021788 0 0 1 -12.718498,0.10657 11.92817,12.021788 0 0 1 -5.583526,-11.51754 l 11.85888,1.2939 z" />
    <path
       style="fill:#f9f9f9;stroke-width:0.270949"
       d="M 15.475367,181.51761 C 3.4878088,196.54332 3.2555048,196.67508 3.2555048,196.67508"
       id="path906-4"
       sodipodi:nodetypes="cc" />
    <path
       style="fill:#000000;stroke-width:0.302054"
       d="m 42.700874,153.43705 c 14.16595,-15.79418 14.440682,-15.93283 14.440682,-15.93283 l 14.791402,15.91325"
       id="path906-9-9-2-9"
       sodipodi:nodetypes="ccc" />
    <rect
       style="fill:#000000;stroke-width:0.284047"
       id="rect736"
       width="54.097706"
       height="24.361883"
       x="69.144753"
       y="119.30157" />
    <rect
       style="fill:#000000;stroke-width:0.222927"
       id="rect740"
       width="45.363434"
       height="12.734296"
       x="34.088726"
       y="154.40474" />
    <path
       style="fill:#f9f9f9;stroke-width:0.338395"
       d="m 73.525934,154.16687 c -15.737743,17.84338 -16.04296,18 -16.04296,18 L 41.05038,154.18898"
       id="path906-9-9-2-9-4"
       sodipodi:nodetypes="ccc" />
    <path
       style="fill:#000000;stroke-width:0.302853"
       d="m 71.958916,153.43512 c -14.181293,15.86077 -14.456326,16 -14.456326,16 L 42.695163,153.45478"
       id="path906-9-9-2-9-5"
       sodipodi:nodetypes="ccc" />
    <rect
       style="fill:#000000;stroke-width:0.264583"
       id="rect961"
       width="13.173169"
       height="0.18999763"
       x="28.102144"
       y="154.46425" />
    <rect
       style="fill:#000000;stroke-width:0.264583"
       id="rect961-6"
       width="13.173169"
       height="0.18999763"
       x="73.334305"
       y="154.40497" />
    <rect
       style="fill:#000000;stroke-width:0.264583"
       id="rect1076"
       width="2.2615349"
       height="6.3143845"
       x="77.384804"
       y="160.83768" />
    <rect
       style="fill:#000000;stroke-width:0.264583"
       id="rect1080"
       width="4.9037285"
       height="0.62699455"
       x="78.370026"
       y="154.5009" />
    <path
       style="fill:#000000;stroke-width:0.159722"
       d="m 25.909116,155.17526 c 0,0 7.57716,1.11334 8.01151,8.62468 0.43435,7.51131 0.7795,-0.0767 0.7795,-0.0767 l -0.0181,-8.88436 -4.59778,-0.35876 -4.16151,-0.0514 z"
       id="path741-9-0-3"
       sodipodi:nodetypes="csccccc" />
    <rect
       style="fill:#000000;stroke-width:0.264583"
       id="rect1143"
       width="2.5078409"
       height="0.59337306"
       x="32.098122"
       y="154.5009" />
    <rect
       style="fill:#000000;stroke-width:0.264583"
       id="rect1145"
       width="8.3632011"
       height="0.078370027"
       x="25.906891"
       y="154.41135" />
    <rect
       style="fill:#000000;stroke-width:0.264583"
       id="rect1147"
       width="29.064085"
       height="0.11195718"
       x="42.790031"
       y="153.35893" />
    <path
       style="fill:#225500;stroke-width:0.218096"
       d="m 46.926489,153.71626 c 9.838281,-11.85633 10.029083,-11.96042 10.029083,-11.96042 l 10.27266,11.94572"
       id="path906-9-9-2-9-3"
       sodipodi:nodetypes="ccc" />
    <path
       style="fill:#225500;stroke-width:0.218798"
       d="m 67.230601,153.6655 c -9.868974,11.89558 -10.015587,12.04478 -10.015587,12.04478 L 46.910303,153.72503"
       id="path906-9-9-2-9-3-2"
       sodipodi:nodetypes="ccc" />
    <circle
       id="path2023"
       style="fill:#d40000;stroke:#000000;stroke-width:0.264583"
       cx="105.38535"
       cy="79.039017"
       r="0.13497333" />
    <path
       style="fill:#225500;stroke-width:0.287216"
       id="path2043"
       d="m 3.1378927,79.157492 c 1.4879529,-1.436894 3.3383034,-3.288254 4.9100916,-4.388307 4.3186097,-3.022481 12.7910297,-7.652958 16.8080587,-9.768527 14.779003,-7.783359 13.664723,-6.887897 30.080275,-13.95405 18.71241,-6.323459 23.136116,-8.039956 42.110979,-13.55588 6.246693,-1.815892 12.508023,-3.570595 18.803433,-5.13553 2.3259,-0.578182 17.36746,-4.530944 22.28893,-3.871706 1.0785,0.144466 2.45064,0.581852 1.88463,2.126696 -0.95685,1.330278 -1.76571,2.830687 -2.87056,3.990832 -4.67593,4.909966 -14.40242,12.553798 -18.86709,16.311643 -4.5022,3.789446 -9.0205,7.554589 -13.44934,11.462243 -13.524314,11.932768 -14.209604,12.975638 -27.038196,25.697155 -3.425114,3.933343 -6.850224,7.866685 -10.275335,11.800026 -0.329406,0.438873 4.937493,5.928463 5.266899,5.489603 v 0 c 3.847658,-3.41339 7.695316,-6.826762 11.542975,-10.240141 4.433707,-4.198862 8.86737,-8.397791 13.301122,-12.596585 4.539455,-4.298895 9.110945,-8.551232 13.618495,-12.89649 4.27743,-4.123426 8.58438,-8.209465 12.73539,-12.508555 3.93865,-4.079137 12.85954,-15.118035 16.92719,-20.876818 1.59835,-2.262873 3.174,-4.629305 2.29911,-8.111566 -1.26206,-1.833729 -2.45091,-4.69881 -4.29285,-5.627854 -7.02607,-3.543844 -20.68,-2.201593 -27.28123,-1.22715 -13.572532,2.003515 -28.547025,6.257508 -41.479295,11.223966 -6.945005,2.667132 -13.660622,6.10166 -20.490934,9.15249 C 37.121293,48.633254 32.096344,50.895505 20.723047,59.04033 14.590279,63.432226 7.3834143,69.09391 2.9444555,76.035491 c -0.453651,0.709414 -0.766101,1.530093 -1.1491515,2.295139 -0.049616,0.111865 1.2929724,0.938734 1.3425887,0.826862 z"
       sodipodi:nodetypes="csscssscsssccsscsssscssscsscc" />
    <path
       style="fill:#225500;fill-rule:nonzero;stroke:none;stroke-width:0.264583"
       d="M 67.356714,99.986329 C 66.45495,104.49515 65.399295,111.306 65.398657,111.31092 l -0.07189,0.55529 0.42579,-0.36362 c 2.45465,-2.09622 5.111829,-4.3654 7.566478,-6.46163 l 0.190895,-0.16302 -0.189941,-0.16413 c -2.323008,-2.00733 -4.401403,-3.80328 -5.610824,-4.848355 z m 0.07046,0.205461 c 1.176361,1.0165 3.174838,2.7434 5.420883,4.68423 -2.116649,1.80757 -4.603174,3.93102 -6.93217,5.91994 0.272813,-1.72711 1.120563,-7.00918 1.863735,-10.72505 z"
       id="path2115"
       inkscape:path-effect="#path-effect2117"
       inkscape:original-d="m 67.568169,100.02862 c -1.393314,6.96658 -1.955654,11.30999 -1.955654,11.30999 l 7.566478,-6.46163 z"
       inkscape:linked-fill="path2121"
       transform="matrix(0.94631334,0,0,0.87207328,3.7679591,13.563476)"
       sodipodi:nodetypes="cccc" />
    <path
       style="fill:#225500;stroke-width:0.0423145"
       d="m 249.99798,416.55716 c 0.01,-0.0421 0.0331,-0.24868 0.0555,-1.14568 0.16795,-6.70934 2.33879,-12.73705 3.95337,-21.74982 1.85391,-10.34872 2.28391,-10.82683 2.32563,-10.86855 0.007,-0.007 0.19951,0.20077 0.42782,0.46171 0.2283,0.26094 0.65111,0.7251 0.93957,1.03147 l 0.52448,0.55704 -0.002,12.66625 -0.002,12.66625 -4.08897,3.21591 c -2.24894,1.76875 -5.59934,5.017 -5.61684,5.02415 -0.0175,0.007 1.47244,-1.81665 1.48254,-1.85875 z"
       id="path2131"
       transform="scale(0.26458333)"
       sodipodi:nodetypes="cssssscccsccc" />
    <path
       style="fill:#225500;stroke-width:0.0423145"
       d="m 258.26669,397.49998 v -12.62271 l 1.25886,1.24757 c 1.31766,1.30585 2.57372,2.48638 3.99042,3.75047 l 0.8419,0.75121 1.25598,7.36273 -1.25738,7.36273 -2.9606,2.3273 c -1.62833,1.28001 -2.99853,2.35342 -3.04489,2.38535 -0.0841,0.0579 -3.19607,-12.56465 -0.0843,-12.56465 z"
       id="path2133"
       transform="scale(0.26458333)"
       sodipodi:nodetypes="ccsscccsssc" />
    <path
       style="fill:#225500;stroke-width:0.0423145"
       d="m 264.4023,397.98868 v -7.30482 l 0.12138,0.0983 c 0.0668,0.054 0.46188,0.39447 0.87803,0.75649 2.36704,2.05914 5.01106,4.1618 6.68068,5.31279 0.60292,0.41565 1.39083,0.91779 1.56365,0.99653 0.0605,0.0275 2.79759,-1.43134 2.79118,-1.41354 -0.009,0.0263 -21.34693,16.90919 -21.45725,16.97738 -0.018,0.0111 9.4223,-11.40547 9.4223,-15.42312 z"
       id="path2139"
       transform="scale(0.26458333)"
       sodipodi:nodetypes="cccssscssc" />
    <path
       style="fill:#d40000;stroke-width:0.0211573"
       d="m 264.39806,400.82432 c 0,-0.064 0.004,-0.0902 0.009,-0.0582 0.005,0.032 0.005,0.0844 0,0.11637 -0.005,0.032 -0.009,0.006 -0.009,-0.0582 z"
       id="path2141"
       transform="scale(0.26458333)" />
    <rect
       style="fill:#225500;stroke-width:0.264583"
       id="rect2145"
       width="5.2565904"
       height="5.4149394"
       x="67.259163"
       y="99.970421"
       ry="0" />
    <rect
       style="fill:#225500;stroke-width:0.264583"
       id="rect2147"
       width="1.3458165"
       height="6.0165911"
       x="103.38245"
       y="-73.220329"
       transform="rotate(90)" />
    <path
       style="fill:#800080;stroke-width:1.35406"
       d="m 250.81653,411.07284 c -0.37307,-1.42667 -0.0807,-3.19157 0.64973,-3.92201 0.73043,-0.73042 1.60726,-4.59011 1.94852,-8.57709 0.34126,-3.98696 0.81405,-8.46769 1.05064,-9.95716 0.23658,-1.48947 0.50792,-4.34546 0.60298,-6.34666 0.12591,-2.65116 6.54371,-10.91862 23.65023,-30.46646 41.42821,-47.34048 115.97723,-116.25059 196.5581,-181.69035 23.02423,-18.69799 42.85816,-37.21694 48.84469,-45.6063 10.03072,-14.0568 7.91559,-17.66797 -10.13048,-17.29576 -14.80166,0.30529 -39.30545,5.08144 -82.04428,15.99164 -84.86191,21.66322 -200.94484,58.99997 -254.37439,81.81663 C 113.2352,232.49395 43.103805,270.36302 21.005038,289.56144 13.482172,296.09695 10.42668,298.00417 9.1614339,296.9541 6.8873484,295.06678 10.711171,288.29494 22.061115,274.10927 63.144011,222.762 193.69256,146.60321 302.59227,110.45436 390.59573,81.241933 475.19575,69.865756 514.3951,81.973202 c 10.71951,3.31092 15.49035,7.139818 21.76356,17.466642 5.41508,8.914176 6.28199,16.911536 2.74962,25.365676 -2.58142,6.1782 -15.03323,23.23742 -38.37682,52.57696 -21.72436,27.30441 -59.27458,65.40574 -132.90288,134.85349 -49.6733,46.85289 -77.6873,72.36703 -92.75344,84.47646 -4.46841,3.59149 -9.89344,8.24437 -12.05564,10.33973 -2.16218,2.09536 -4.37812,3.53356 -4.92431,3.19599 -0.54619,-0.33756 -1.74604,0.29354 -2.66636,1.40244 -2.25222,2.71376 -3.59762,2.5376 -4.4123,-0.57775 z"
       id="path1"
       transform="scale(0.26458333)" />
    <path
       style="fill:#800080;stroke-width:0.169258"
       d=""
       id="path2"
       transform="scale(0.26458333)" />
    <path
       style="fill:#800080;stroke-width:0.169258"
       d="m 231.29119,137.78858 c 0,-0.35641 0.42564,-0.59119 4.01988,-2.21735 15.83477,-7.16419 27.58526,-11.94658 43.88489,-17.8609 45.02638,-16.33783 92.71911,-29.081562 134.21693,-35.863416 16.83536,-2.75135 29.72518,-4.171444 46.46135,-5.118738 5.0063,-0.283364 21.83611,-0.287178 26.23501,-0.0059 12.2968,0.786166 21.6401,2.290988 29.83174,4.804662 1.63648,0.502171 1.73489,0.558103 1.73489,0.986083 v 0.453716 l -1.98878,-0.666752 c -14.65274,-4.912427 -37.19245,-6.350237 -65.46057,-4.175736 -50.7504,3.903932 -118.29409,20.249804 -177.6901,43.001791 -10.62219,4.06889 -23.84355,9.48091 -34.47492,14.11196 -2.9324,1.27735 -5.65534,2.46349 -6.05098,2.63585 l -0.71934,0.31339 z"
       id="path3"
       transform="scale(0.26458333)" />
    <path
       style="fill:#800080;stroke-width:0.478734"
       d="m 197.21047,603.8072 -19.03609,-22.14517 7.85648,-0.22798 7.85648,-0.22798 -8.00768,-0.25075 -8.00769,-0.25075 16.6249,-19.90356 c 9.1437,-10.94695 17.53618,-20.96387 18.64996,-22.25982 l 2.02506,-2.35627 1.13864,1.19552 c 2.02206,2.12306 36.70049,42.61649 36.70049,42.85456 0,0.12661 -2.31588,0.27317 -5.1464,0.32569 l -5.14639,0.0955 5.37416,0.26356 5.37416,0.26356 -18.61,22.38453 -18.60999,22.38453 z"
       id="path4"
       transform="scale(0.26458333)" />
    <path
       style="fill:#800080;stroke-width:0.084629"
       d="m 196.92503,603.77744 c -10.60876,-12.33507 -19.34439,-22.50673 -19.41249,-22.60369 l -0.12384,-0.1763 6.59796,0.0566 c 3.62887,0.0311 6.84549,0.084 7.14804,0.11743 0.3527,0.039 -1.37831,0.1154 -4.82385,0.2129 -6.85084,0.19387 -8.12439,0.24257 -8.12439,0.31066 0,0.0833 37.94299,44.2042 38.04076,44.23456 0.0716,0.0222 37.19253,-44.54089 37.26038,-44.73061 0.013,-0.0363 -1.0343,-0.11463 -2.3273,-0.17408 -1.293,-0.0594 -3.22681,-0.1536 -4.29737,-0.20924 -1.84272,-0.0958 -1.90361,-0.10412 -1.14249,-0.15678 0.44219,-0.0306 1.81318,-0.0762 3.04664,-0.10132 2.15144,-0.0438 4.08202,-0.16383 4.2437,-0.26375 0.0421,-0.0261 -0.0481,-0.20594 -0.20054,-0.39976 -0.61474,-0.78163 -5.69482,-6.7672 -12.78607,-15.0651 -1.90242,-2.22613 -3.44028,-4.06617 -3.41747,-4.08898 0.0228,-0.0228 3.9476,4.50096 8.72176,10.05282 4.77416,5.55186 8.6505,10.11484 8.61409,10.13996 -0.0364,0.0251 -4.82274,5.77716 -10.63628,12.78233 -17.53548,21.12982 -26.89257,32.36614 -27.01715,32.44313 -0.0415,0.0256 -8.75532,-10.04571 -19.36409,-22.38077 z"
       id="path5"
       transform="scale(0.26458333)" />
    <path
       style="fill:#80004c;stroke-width:0.084629;fill-opacity:1"
       d=""
       id="path6"
       transform="scale(0.26458333)" />
    <path
       style="fill:#80004c;fill-opacity:1;stroke-width:0.957468"
       d=""
       id="path7"
       transform="scale(0.26458333)" />
    <path
       style="fill:#80004c;fill-opacity:1;stroke-width:0.957468"
       d="m 197.70365,603.52674 -18.42386,-21.38597 7.06441,-0.54561 7.06441,-0.5456 -7.46607,-0.1725 -7.46608,-0.1725 17.87792,-21.30367 c 9.83285,-11.71702 18.21727,-21.43465 18.63204,-21.59473 0.41478,-0.16009 8.82308,9.10342 18.68511,20.58557 l 17.93097,20.87663 -4.6815,0.52847 c -5.01568,0.56619 -4.16966,1.61324 1.67344,2.07107 l 3.48253,0.27287 -17.10978,20.52101 c -9.41037,11.28656 -17.499,20.91024 -17.97473,21.38597 -0.51496,0.51496 -8.31995,-7.78862 -19.28881,-20.52101 z"
       id="path8"
       transform="scale(0.26458333)" />
    <path
       style="fill:#80004c;fill-opacity:1;stroke-width:0.0149604"
       d="m 243.74073,580.56077 c 0.27708,-0.25588 1.21142,-0.50231 2.59793,-0.68519 0.37385,-0.0493 0.52942,-0.0672 2.93068,-0.3379 1.27452,-0.14366 2.32077,-0.26467 2.32501,-0.2689 0.004,-0.004 -0.002,-0.0195 -0.0149,-0.034 -0.0124,-0.0144 -2.19573,-2.55757 -4.85179,-5.65139 -2.65605,-3.09382 -4.84283,-5.64028 -4.85951,-5.65879 l -0.0303,-0.0337 h 0.36566 0.36566 l 0.97946,1.14821 c 5.21707,6.11595 8.81629,10.37231 9.35639,11.06466 0.11468,0.147 0.11469,0.14684 -0.0137,0.17466 -0.39525,0.0857 -1.69507,0.17454 -3.38106,0.23115 -0.81601,0.0274 -1.60229,0.0448 -3.72515,0.0823 -0.91333,0.0161 -1.76496,0.0323 -1.89249,0.036 l -0.23189,0.007 z"
       id="path9"
       transform="scale(0.26458333)" />
    <path
       style="fill:#80004c;fill-opacity:1;stroke-width:0.0149604"
       d="m 253.94604,580.93417 c 0,-0.0378 -0.4977,-0.63954 -1.85422,-2.24178 -1.89388,-2.23696 -5.07596,-5.95515 -8.22615,-9.61209 -0.55996,-0.65003 -1.01144,-1.18426 -1.00328,-1.18718 0.008,-0.003 0.0228,0.005 0.0326,0.0177 0.01,0.0126 2.50507,2.91492 5.54513,6.44951 l 5.52737,6.42655 h 0.057 0.057 l -0.0246,0.0375 c -0.0198,0.0302 -0.0209,0.0418 -0.006,0.0598 0.0156,0.0187 0.013,0.0224 -0.0157,0.0224 -0.0189,0 -0.0466,0.0111 -0.0617,0.0248 -0.0227,0.0205 -0.0274,0.021 -0.0274,0.003 z"
       id="path10"
       transform="scale(0.26458333)" />
    <path
       style="fill:#80004c;fill-opacity:1;stroke-width:0.015625"
       d="m 253.94531,580.91756 c 0,-0.0293 -0.56371,-0.71334 -1.52236,-1.84725 -0.5297,-0.62653 -2.14911,-2.53145 -2.38853,-2.80963 -0.12808,-0.14881 -0.22934,-0.27409 -0.22503,-0.27841 0.004,-0.004 0.93842,1.07506 2.07579,2.39859 l 2.06794,2.40643 0.0617,8.9e-4 c 0.048,6.9e-4 0.0576,0.005 0.043,0.0196 -0.0103,0.0103 -0.0187,0.0341 -0.0187,0.0529 0,0.0188 -0.0123,0.0385 -0.0273,0.0438 -0.015,0.005 -0.0361,0.0137 -0.0469,0.0187 -0.0107,0.005 -0.0195,0.002 -0.0195,-0.006 z"
       id="path11"
       transform="scale(0.26458333)" />
    <path
       style="fill:#80004c;fill-opacity:1;stroke-width:0.015625"
       d=""
       id="path12"
       transform="scale(0.26458333)" />
    <path
       style="fill:#80004c;fill-opacity:1"
       d="m 251.89789,409.25 c 0.34369,-1.7875 1.30306,-8.2 2.13194,-14.25 0.82887,-6.05 1.72546,-11.98518 1.99242,-13.18929 1.23381,-5.56506 25.69639,-33.53302 57.4314,-65.66105 C 358.89635,270.14417 402.2793,231.11228 472.56088,173 c 38.49023,-31.82562 57.89443,-51.9831 57.92974,-60.17857 0.0412,-9.57592 -24.84799,-7.96606 -79.49062,5.14154 -67.81008,16.2662 -177.14791,49.80208 -244.23117,74.91009 C 144.09982,216.32891 53.632299,262.80187 23.5,287.01784 14.676318,294.10904 11.34221,296.5 10.277494,296.5 c -2.7873394,0 1.485503,-8.46716 9.079695,-17.99252 C 37.085983,256.27033 58.889078,237.73155 97.5,212.06407 c 67.98075,-45.19174 150.19644,-84.55924 222.56639,-106.5719 89.9878,-27.371457 169.95508,-35.317466 201.10409,-19.982857 6.92396,3.408652 10.60117,7.300417 15.5026,16.407127 4.26468,7.92365 4.60024,16.49699 0.93696,23.9384 -4.32363,8.7828 -29.79886,42.392 -49.74886,65.63313 C 459.07371,225.02449 326.81302,352.33452 279,392.53126 c -5.5,4.62388 -12.18617,10.33344 -14.85815,12.6879 -2.67199,2.35446 -5.42939,4.28084 -6.12756,4.28084 -0.69817,0 -1.8296,0.675 -2.51429,1.5 -0.68469,0.825 -1.91586,1.5 -2.73594,1.5 -1.14374,0 -1.3455,-0.75705 -0.86617,-3.25 z"
       id="path13"
       transform="scale(0.26458333)" />
  </g>
</svg>
